<svg xmlns="http://www.w3.org/2000/svg" width="139" height="24" fill="none" viewBox="0 0 139 24"><rect width="138.764" height="24" fill="#261230" rx="2.182"/><path fill="#d7ff64" d="M8.728 15.273h1.185V11.87l-.224-1.464.206-.072 2.236 4.83 2.218-4.83.197.072-.197 1.455v3.412h1.176V8.727h-1.572l-1.741 3.987h-.198l-1.742-3.987H8.728zM22.343 15.273h1.32l-2.361-6.546h-1.545l-2.298 6.546h1.248l.449-1.293h2.747zm-2.846-2.245.404-1.167.53-1.859h.215l.53 1.859.395 1.167zM25.42 15.273h2.703c1.985 0 2.865-1.132 2.865-3.269 0-2.083-.817-3.277-2.865-3.277h-2.702zm1.204-1.06V9.778h1.473c1.05 0 1.634.413 1.634 1.67v1.104c0 1.14-.45 1.661-1.635 1.661zM33.079 15.273h4.57v-1.06h-3.367v-1.831H37.2v-.988h-2.918V9.778h3.367v-1.05h-4.57zM42.923 15.273h3.322c1.212 0 1.958-.692 1.958-1.724 0-.781-.369-1.374-1.15-1.554v-.215c.61-.207.979-.736.979-1.437 0-.96-.575-1.616-1.751-1.616h-3.358zm1.176-3.798V9.652h1.859c.53 0 .835.27.835.7v.413c0 .422-.297.71-.817.71zm0 2.864V12.39h1.93c.557 0 .907.252.907.79v.387c0 .476-.368.772-1.005.772zM49.696 8.727l2.478 3.852v1.616H50.19v1.078h3.187v-2.694l2.478-3.852h-1.41l-.933 1.527-.638 1.122h-.206l-.62-1.104-.942-1.545z"/><path fill="#d7ff64" fill-rule="evenodd" d="M74.182 7.636c0-.602.489-1.09 1.091-1.09h8.728c.602 0 1.09.488 1.09 1.09v2.182h-5.018v-.873h-.872v1.746H84c.602 0 1.09.488 1.09 1.09v4.582a1.09 1.09 0 0 1-1.09 1.091h-8.728a1.09 1.09 0 0 1-1.09-1.09v-2.182H79.2v.872h.872V13.31h-4.8a1.09 1.09 0 0 1-1.09-1.09zm-10.69-1.09a1.09 1.09 0 0 0-1.092 1.09v9.819h5.018v-3.273h.873v3.272h5.018V7.637a1.09 1.09 0 0 0-1.09-1.09zm5.672 4.145v.873h-2.618v-.873zm41.455-4.146a1.09 1.09 0 0 0-1.091 1.091v9.819h5.018v-3.273h.873v3.272h5.018V7.637c0-.602-.489-1.09-1.091-1.09zm5.672 4.146v.873h-2.618v-.873zm-24.436-2.4h5.018v3.054a1.09 1.09 0 0 1-1.09 1.091h-3.928v.873h5.018v4.146h-8.945a1.09 1.09 0 0 1-1.091-1.091v-3.928h-.873V8.291h.873V6.545h5.018zm16.8-.655c0-.602-.489-1.09-1.091-1.09h-9.818v10.909h5.018v-3.273h.873v3.272h5.018V13.31h-2.182v-.873h1.091c.602 0 1.091-.488 1.091-1.09zm-4.146 3.055v.873h-2.618v-.873zm27.709 2.618h-5.891V6.545h-5.018v10.91h10.909z" clip-rule="evenodd"/></svg>