<svg xmlns="http://www.w3.org/2000/svg" width="1837pt" height="2896" viewBox="0 0 1837 2172"><g class="graph" transform="translate(4 2167.68)"><title>python_import_resolution</title><path fill="#fff" d="M-4 4v-2171.68h1836.95V4z"/><text xml:space="preserve" x="524.85" y="-2147.38" font-family="Times,serif" font-size="14">        </text><text xml:space="preserve" x="560.85" y="-2147.38" font-family="Times,serif" font-size="14" font-weight="bold">Python import resolution flow diagram for a single module name in a single &quot;search path&quot;</text><text xml:space="preserve" x="1268.1" y="-2147.38" font-family="Times,serif" font-size="14">        </text><text xml:space="preserve" x="663.23" y="-2133.38" font-family="Times,serif" font-size="14">(assumes that the module name is valid and that stubs are allowed)    </text><g class="node"><title>module</title><ellipse cx="105.71" cy="-22" fill="none" stroke="#000" rx="101.71" ry="18"/><ellipse cx="105.71" cy="-22" fill="none" stroke="#000" rx="105.71" ry="22"/><text xml:space="preserve" x="105.71" y="-17.32" font-family="Times,serif" font-size="14" text-anchor="middle">Single-file Module</text></g><g class="node"><title>package</title><ellipse cx="302.71" cy="-22" fill="none" stroke="#000" rx="52.26" ry="18"/><ellipse cx="302.71" cy="-22" fill="none" stroke="#000" rx="56.26" ry="22"/><text xml:space="preserve" x="302.71" y="-17.32" font-family="Times,serif" font-size="14" text-anchor="middle">Package</text></g><g class="node"><title>namespace_package</title><ellipse cx="529.71" cy="-22" fill="none" stroke="#000" rx="113.29" ry="18"/><ellipse cx="529.71" cy="-22" fill="none" stroke="#000" rx="117.29" ry="22"/><text xml:space="preserve" x="529.71" y="-17.32" font-family="Times,serif" font-size="14" text-anchor="middle">Namespace Package</text></g><g class="node"><title>not_found</title><ellipse cx="1227.71" cy="-22" fill="none" stroke="#000" rx="104.35" ry="18"/><ellipse cx="1227.71" cy="-22" fill="none" stroke="#000" rx="108.35" ry="22"/><text xml:space="preserve" x="1227.71" y="-17.32" font-family="Times,serif" font-size="14" text-anchor="middle">Module Not Found</text></g><g class="node"><title>START</title><ellipse cx="1521.71" cy="-2109.68" fill="none" stroke="#000" rx="47.53" ry="18"/><text xml:space="preserve" x="1495.84" y="-2106" font-family="Times,serif" font-size="14" font-weight="bold">START</text></g><g class="node"><title>non_shadowable</title><ellipse cx="1521.71" cy="-2024.63" fill="none" stroke="#000" rx="307.24" ry="30.05"/><text xml:space="preserve" x="1335.71" y="-2028.58" font-family="Times,serif" font-size="14">        Is the search path not the standard library and</text><text xml:space="preserve" x="1312.46" y="-2011.33" font-family="Times,serif" font-size="14">        the module name is `types` or some other built-in?    </text></g><g class="edge"><title>START-&gt;non_shadowable</title><path fill="none" stroke="#000" d="M1521.71-2091.47v25.08"/><path stroke="#000" d="m1525.21-2066.43-3.5 10-3.5-10z"/></g><g class="edge"><title>non_shadowable-&gt;not_found</title><path fill="none" stroke="#000" d="M1654.8-1997.15c32.89 14.67 58.91 37.46 58.91 72.83v1810.07c0 38.06-233.17 67.17-376.5 81.48"/><path stroke="#000" d="m1337.57-29.29-10.29-2.5 9.61-4.47z"/><text xml:space="preserve" x="1725.71" y="-949.84" font-family="Times,serif" font-size="14" text-anchor="middle">Yes</text></g><g class="node"><title>stub_package_check</title><ellipse cx="1329.71" cy="-1923.32" fill="none" stroke="#000" rx="261.65" ry="18"/><text xml:space="preserve" x="1151.21" y="-1918.65" font-family="Times,serif" font-size="14">        Is the search path in the standard library?    </text></g><g class="edge"><title>non_shadowable-&gt;stub_package_check</title><path fill="none" stroke="#000" d="M1465.66-1994.64c-29.54 15.28-65.22 33.74-92.62 47.91"/><path stroke="#000" d="m1374.81-1943.71-10.49 1.49 7.27-7.71z"/><text xml:space="preserve" x="1435.84" y="-1963.27" font-family="Times,serif" font-size="14" text-anchor="middle">No</text></g><g class="node"><title>stub_package_set</title><ellipse cx="1329.71" cy="-1834.07" fill="none" stroke="#000" rx="312.68" ry="18"/><text xml:space="preserve" x="1114.84" y="-1829.4" font-family="Times,serif" font-size="14">        Set `module_name` to `{top-package}-stubs.{rest}`    </text></g><g class="edge"><title>stub_package_check-&gt;stub_package_set</title><path fill="none" stroke="#000" d="M1329.71-1905.09v41.52"/><path stroke="#000" d="m1333.21-1863.79-3.5 10-3.5-10z"/><text xml:space="preserve" x="1339.84" y="-1874.02" font-family="Times,serif" font-size="14" text-anchor="middle">No</text></g><g class="node"><title>determine_parent_kind</title><ellipse cx="974.71" cy="-1736.83" fill="none" stroke="#000" rx="269.05" ry="42.25"/><text xml:space="preserve" x="792.46" y="-1749.4" font-family="Times,serif" font-size="14">        Does every parent package of `module_name`</text><text xml:space="preserve" x="805.96" y="-1732.15" font-family="Times,serif" font-size="14">        correspond to a directory that contains an</text><text xml:space="preserve" x="832.59" y="-1714.9" font-family="Times,serif" font-size="14">        `__init__.py` or an `__init__.pyi`?    </text></g><g class="edge"><title>stub_package_check-&gt;determine_parent_kind</title><path fill="none" stroke="#000" d="M1171.52-1908.62c-78.66 10.3-162.31 27.74-187.81 56.55-14.53 16.41-18.22 39.87-17.7 61.25"/><path stroke="#000" d="m969.49-1791.23-2.93 10.18-4.06-9.78z"/><text xml:space="preserve" x="995.71" y="-1829.4" font-family="Times,serif" font-size="14" text-anchor="middle">Yes</text></g><g class="edge"><title>stub_package_set-&gt;determine_parent_kind</title><path fill="none" stroke="#000" d="M1266.25-1816.05c-40.78 10.94-95.48 25.62-146.48 39.3"/><path stroke="#000" d="m1120.98-1773.45-10.57-.78 8.76-5.98z"/></g><g class="node"><title>regular_parent_std</title><ellipse cx="617.71" cy="-1197.73" fill="none" stroke="#000" rx="337.41" ry="18"/><text xml:space="preserve" x="385.21" y="-1193.06" font-family="Times,serif" font-size="14">        Does the search path correspond to the standard library?    </text></g><g class="edge"><title>determine_parent_kind-&gt;regular_parent_std</title><path fill="none" stroke="#000" d="M832.87-1700.59c-45.41 20.39-84.16 52-84.16 100.51v241.2c0 59.27-54.43 108.67-93.12 136.3"/><path stroke="#000" d="m657.6-1219.71-10.22 2.82 6.23-8.58z"/><text xml:space="preserve" x="760.71" y="-1480.9" font-family="Times,serif" font-size="14" text-anchor="middle">Yes</text></g><g class="node"><title>namespace_parent_regular_check</title><ellipse cx="1296.71" cy="-1599.08" fill="none" stroke="#000" rx="212.31" ry="42.25"/><text xml:space="preserve" x="1177.84" y="-1611.65" font-family="Times,serif" font-size="14">        Is the direct parent package</text><text xml:space="preserve" x="1190.59" y="-1594.4" font-family="Times,serif" font-size="14">        a directory that contains</text><text xml:space="preserve" x="1154.59" y="-1577.15" font-family="Times,serif" font-size="14">        an `__init__.py` or `__init__.pyi`?    </text></g><g class="edge"><title>determine_parent_kind-&gt;namespace_parent_regular_check</title><path fill="none" stroke="#000" d="M1067.42-1696.74c40.51 17.07 88.09 37.14 129.38 54.54"/><path stroke="#000" d="m1197.91-1645.53 7.85 7.11-10.57-.66z"/><text xml:space="preserve" x="1165.12" y="-1663.28" font-family="Times,serif" font-size="14" text-anchor="middle">No</text></g><g class="node"><title>resolved_parent_package</title><ellipse cx="512.71" cy="-897.84" fill="none" stroke="#000" rx="328.45" ry="30.05"/><text xml:space="preserve" x="339.09" y="-901.79" font-family="Times,serif" font-size="14">        After replacing `.` with `/` in module name,</text><text xml:space="preserve" x="288.46" y="-884.54" font-family="Times,serif" font-size="14">        does `{path}/__init__.py` or `{path}/__init__.pyi` exist?    </text></g><g class="edge"><title>regular_parent_std-&gt;resolved_parent_package</title><path fill="none" stroke="#000" d="M568.87-1179.57c-38.51 16.43-89.56 45.32-113.41 89.53-22.97 42.6-14.48 62.72 0 108.9 4.91 15.63 13.95 30.9 23.42 43.95"/><path stroke="#000" d="m481.61-939.38 3.27 10.08-8.84-5.84z"/><text xml:space="preserve" x="465.59" y="-1030.92" font-family="Times,serif" font-size="14" text-anchor="middle">No</text></g><g class="node"><title>regular_parent_typeshed_check</title><ellipse cx="719.71" cy="-1035.59" fill="none" stroke="#000" rx="235.11" ry="54.45"/><text xml:space="preserve" x="595.59" y="-1056.79" font-family="Times,serif" font-size="14">        Does every parent package of</text><text xml:space="preserve" x="561.46" y="-1039.54" font-family="Times,serif" font-size="14">        `module_name` exist on the configured</text><text xml:space="preserve" x="599.34" y="-1022.29" font-family="Times,serif" font-size="14">        Python version according to </text><text xml:space="preserve" x="595.96" y="-1005.04" font-family="Times,serif" font-size="14">        typeshed&apos;s VERSIONS file?    </text></g><g class="edge"><title>regular_parent_std-&gt;regular_parent_typeshed_check</title><path fill="none" stroke="#000" d="M628.82-1179.29c12.2 19.15 32.5 51.02 50.82 79.79"/><path stroke="#000" d="m682.54-1101.48 2.42 10.32-8.33-6.56z"/><text xml:space="preserve" x="683.77" y="-1111.99" font-family="Times,serif" font-size="14" text-anchor="middle">Yes</text></g><g class="node"><title>bail</title><ellipse cx="1222.71" cy="-115.25" fill="none" stroke="#000" rx="306.9" ry="18"/><text xml:space="preserve" x="1011.96" y="-110.58" font-family="Times,serif" font-size="14">        Is `module_name` set to a stub package candidate?    </text></g><g class="edge"><title>namespace_parent_regular_check-&gt;bail</title><path fill="none" stroke="#000" d="M1473.33-1575.23c93.17 17.18 188.38 45.34 188.38 88.65v1246.63c0 58.47-146.06 90.64-269.69 107.4"/><path stroke="#000" d="m1392.77-129.12-10.38-2.15 9.46-4.79z"/><text xml:space="preserve" x="1673.71" y="-791.86" font-family="Times,serif" font-size="14" text-anchor="middle">Yes</text></g><g class="node"><title>namespace_parent_std</title><ellipse cx="1296.71" cy="-1485.58" fill="none" stroke="#000" rx="337.41" ry="18"/><text xml:space="preserve" x="1064.21" y="-1480.9" font-family="Times,serif" font-size="14">        Does the search path correspond to the standard library?    </text></g><g class="edge"><title>namespace_parent_regular_check-&gt;namespace_parent_std</title><path fill="none" stroke="#000" d="M1296.71-1556.56v41.43"/><path stroke="#000" d="m1300.21-1515.45-3.5 10-3.5-10z"/><text xml:space="preserve" x="1306.84" y="-1525.53" font-family="Times,serif" font-size="14" text-anchor="middle">No</text></g><g class="edge"><title>resolved_parent_package-&gt;package</title><path fill="none" stroke="#000" d="M335.99-872.15c-86.16 22.43-180.83 65.22-226.28 146.86-3.57 6.42-3.41 433.11 43 538.79 25.42 57.88 79.89 108.73 115.72 137.79"/><path stroke="#000" d="m270.28-51.71 5.64 8.97-10-3.49z"/><text xml:space="preserve" x="127.24" y="-451.22" font-family="Times,serif" font-size="14" text-anchor="middle">Yes</text></g><g class="node"><title>maybe_module</title><ellipse cx="512.71" cy="-796.54" fill="none" stroke="#000" rx="249.55" ry="18"/><text xml:space="preserve" x="342.84" y="-791.86" font-family="Times,serif" font-size="14">        Does `{path}.py` or `{path}.pyi` exist?    </text></g><g class="edge"><title>resolved_parent_package-&gt;maybe_module</title><path fill="none" stroke="#000" d="M512.71-867.32v40.85"/><path stroke="#000" d="m516.21-826.5-3.5 10-3.5-10z"/><text xml:space="preserve" x="522.84" y="-836.49" font-family="Times,serif" font-size="14" text-anchor="middle">No</text></g><g class="edge"><title>regular_parent_typeshed_check-&gt;resolved_parent_package</title><path fill="none" stroke="#000" d="M642.34-983.85c-25.12 16.47-52.44 34.39-75.49 49.51"/><path stroke="#000" d="m568.8-931.44-10.28 2.56 6.44-8.41z"/><text xml:space="preserve" x="622.01" y="-949.84" font-family="Times,serif" font-size="14" text-anchor="middle">Yes</text></g><g class="edge"><title>regular_parent_typeshed_check-&gt;bail</title><path fill="none" stroke="#000" d="M864.91-992.41c38.62 20.58 69.8 50.53 69.8 93.57v237.18c0 115.84 17.81 435.29 106 510.41 7.87 6.7 23.26 12.24 41.89 16.79"/><path stroke="#000" d="m1083.12-137.93 8.98 5.62-10.53 1.21z"/><text xml:space="preserve" x="949.92" y="-576.92" font-family="Times,serif" font-size="14" text-anchor="middle">No</text></g><g class="edge"><title>bail-&gt;not_found</title><path fill="none" stroke="#000" d="M1223.66-97.09c.64 11.7 1.5 27.55 2.27 41.59"/><path stroke="#000" d="m1229.41-55.95-2.94 10.18-4.05-9.8z"/><text xml:space="preserve" x="1235.64" y="-65.95" font-family="Times,serif" font-size="14" text-anchor="middle">No</text></g><g class="node"><title>retry</title><ellipse cx="887.71" cy="-22" fill="none" stroke="#000" rx="213.78" ry="18"/><text xml:space="preserve" x="743.34" y="-17.32" font-family="Times,serif" font-size="14">        Reset `module_name` to original    </text></g><g class="edge"><title>bail-&gt;retry</title><path fill="none" stroke="#000" d="M1160.1-97.19c-56.87 15.49-140.74 38.33-200.37 54.57"/><path stroke="#000" d="m960.92-39.31-10.57-.75 8.73-6.01z"/><text xml:space="preserve" x="1097.22" y="-65.95" font-family="Times,serif" font-size="14" text-anchor="middle">Yes</text></g><g class="node"><title>namespace_parent_module_check</title><ellipse cx="1358.71" cy="-1197.73" fill="none" stroke="#000" rx="242.54" ry="54.45"/><text xml:space="preserve" x="1228.59" y="-1218.93" font-family="Times,serif" font-size="14">        Does the direct parent package</text><text xml:space="preserve" x="1225.21" y="-1201.68" font-family="Times,serif" font-size="14">        have a sibling file with the same</text><text xml:space="preserve" x="1195.21" y="-1184.43" font-family="Times,serif" font-size="14">        basename and a `py` or `pyi` extension?</text><text xml:space="preserve" x="1349.71" y="-1167.18" font-family="Times,serif" font-size="14">    </text></g><g class="edge"><title>namespace_parent_std-&gt;namespace_parent_module_check</title><path fill="none" stroke="#000" d="M1365.9-1467.6c27.61 10.54 56.64 27.22 72.81 53.27 25.54 41.12 15.31 62.98 0 108.9-5.28 15.85-13.94 31.25-23.66 45.19"/><path stroke="#000" d="m1418.14-1258.55-8.72 6.02 3.06-10.14z"/><text xml:space="preserve" x="1464.38" y="-1355.2" font-family="Times,serif" font-size="14" text-anchor="middle">No</text></g><g class="node"><title>namespace_parent_typeshed_check</title><ellipse cx="1194.71" cy="-1359.88" fill="none" stroke="#000" rx="235.11" ry="54.45"/><text xml:space="preserve" x="1055.59" y="-1381.08" font-family="Times,serif" font-size="14">        Does the direct parent package of</text><text xml:space="preserve" x="1036.46" y="-1363.83" font-family="Times,serif" font-size="14">        `module_name` exist on the configured</text><text xml:space="preserve" x="1074.34" y="-1346.58" font-family="Times,serif" font-size="14">        Python version according to </text><text xml:space="preserve" x="1070.96" y="-1329.33" font-family="Times,serif" font-size="14">        typeshed&apos;s VERSIONS file?    </text></g><g class="edge"><title>namespace_parent_std-&gt;namespace_parent_typeshed_check</title><path fill="none" stroke="#000" d="M1282.32-1467.12c-9.78 11.86-23.34 28.31-36.88 44.72"/><path stroke="#000" d="m1248.41-1420.49-9.06 5.48 3.66-9.94z"/><text xml:space="preserve" x="1278.57" y="-1436.28" font-family="Times,serif" font-size="14" text-anchor="middle">Yes</text></g><g class="edge"><title>namespace_parent_module_check-&gt;bail</title><path fill="none" stroke="#000" d="M1480.33-1150.23c44.6 25.58 84.38 62.68 84.38 113.64v796.64c0 49.91-130.39 85.34-230.15 105.15"/><path stroke="#000" d="m1335.45-131.4-10.49-1.52 9.15-5.35z"/><text xml:space="preserve" x="1576.71" y="-657.99" font-family="Times,serif" font-size="14" text-anchor="middle">Yes</text></g><g class="node"><title>namespace_parent_above</title><ellipse cx="1309.71" cy="-1035.59" fill="none" stroke="#000" rx="227.16" ry="54.45"/><text xml:space="preserve" x="1176.96" y="-1056.79" font-family="Times,serif" font-size="14">        Is every parent above the direct</text><text xml:space="preserve" x="1161.59" y="-1039.54" font-family="Times,serif" font-size="14">        parent package a normal package or</text><text xml:space="preserve" x="1168.34" y="-1022.29" font-family="Times,serif" font-size="14">        otherwise satisfy the previous two</text><text xml:space="preserve" x="1157.09" y="-1005.04" font-family="Times,serif" font-size="14">        namespace package requirements?    </text></g><g class="edge"><title>namespace_parent_module_check-&gt;namespace_parent_above</title><path fill="none" stroke="#000" d="M1342.26-1142.96c-4.1 13.4-8.54 27.92-12.79 41.79"/><path stroke="#000" d="m1332.84-1100.21-6.27 8.54-.42-10.58z"/><text xml:space="preserve" x="1345.81" y="-1111.99" font-family="Times,serif" font-size="14" text-anchor="middle">No</text></g><g class="edge"><title>namespace_parent_typeshed_check-&gt;bail</title><path fill="none" stroke="#000" d="M1117.34-1308.13c-32.37 27.76-62.63 65.45-62.63 109.4v958.78c0 51.41 51.65 83.84 97.68 102.53"/><path stroke="#000" d="m1153.54-140.72 8.06 6.88-10.59-.36z"/><text xml:space="preserve" x="1064.84" y="-702.61" font-family="Times,serif" font-size="14" text-anchor="middle">No</text></g><g class="edge"><title>namespace_parent_typeshed_check-&gt;namespace_parent_module_check</title><path fill="none" stroke="#000" d="M1248.41-1306.44c15.44 15.07 32.39 31.63 48.29 47.14"/><path stroke="#000" d="m1299.1-1261.84 4.71 9.49-9.6-4.48z"/><text xml:space="preserve" x="1293.63" y="-1274.13" font-family="Times,serif" font-size="14" text-anchor="middle">Yes</text></g><g class="edge"><title>namespace_parent_above-&gt;resolved_parent_package</title><path fill="none" stroke="#000" d="M1125.87-1003.28c-135.58 23.1-318.39 54.23-449.05 76.49"/><path stroke="#000" d="m677.47-923.35-10.45-1.77 9.27-5.13z"/><text xml:space="preserve" x="899.32" y="-949.84" font-family="Times,serif" font-size="14" text-anchor="middle">Yes</text></g><g class="edge"><title>namespace_parent_above-&gt;bail</title><path fill="none" stroke="#000" d="M1283.87-981.05c-9.58 24.48-18.16 54.21-18.16 82.21v658.89c0 34.66-15.24 71.91-27.58 96.37"/><path stroke="#000" d="m1241.35-142.19-7.74 7.23 1.54-10.48z"/><text xml:space="preserve" x="1275.84" y="-576.92" font-family="Times,serif" font-size="14" text-anchor="middle">No</text></g><g class="node"><title>maybe_module_std</title><ellipse cx="455.71" cy="-707.29" fill="none" stroke="#000" rx="337.41" ry="18"/><text xml:space="preserve" x="223.21" y="-702.61" font-family="Times,serif" font-size="14">        Does the search path correspond to the standard library?    </text></g><g class="edge"><title>maybe_module-&gt;maybe_module_std</title><path fill="none" stroke="#000" d="M501.45-778.3c-8.12 12.43-19.23 29.43-28.46 43.57"/><path stroke="#000" d="m476.18-733.22-8.4 6.46 2.54-10.28z"/><text xml:space="preserve" x="501.32" y="-747.24" font-family="Times,serif" font-size="14" text-anchor="middle">Yes</text></g><g class="node"><title>maybe_namespace</title><ellipse cx="641.71" cy="-455.89" fill="none" stroke="#000" rx="169.06" ry="18"/><text xml:space="preserve" x="529.21" y="-451.22" font-family="Times,serif" font-size="14">        Is `{path}` a directory?    </text></g><g class="edge"><title>maybe_module-&gt;maybe_namespace</title><path fill="none" stroke="#000" d="M637.97-780.54c68.23 11.03 142.92 28.76 163.74 55.25 65.51 83.33-62.19 195.81-126.32 244.4"/><path stroke="#000" d="m677.74-478.28-10.11 3.18 5.92-8.79z"/><text xml:space="preserve" x="829.9" y="-657.99" font-family="Times,serif" font-size="14" text-anchor="middle">No</text></g><g class="edge"><title>maybe_module_std-&gt;module</title><path fill="none" stroke="#000" d="M303.75-690.81c-41.24 10.31-83.44 27.2-116.04 54.77-82.76 70-97 115.38-97 223.77v298.02c0 19.7 3.45 41.47 7.04 58.81"/><path stroke="#000" d="M101.16-56.22 99.89-45.7l-5.57-9.02z"/><text xml:space="preserve" x="100.84" y="-361.97" font-family="Times,serif" font-size="14" text-anchor="middle">No</text></g><g class="node"><title>maybe_module_typeshed_check</title><ellipse cx="455.71" cy="-581.59" fill="none" stroke="#000" rx="258.98" ry="54.45"/><text xml:space="preserve" x="280.59" y="-602.79" font-family="Times,serif" font-size="14">        Does the module corresponding to `{path}`</text><text xml:space="preserve" x="355.59" y="-585.54" font-family="Times,serif" font-size="14">        exist on the configured</text><text xml:space="preserve" x="335.34" y="-568.29" font-family="Times,serif" font-size="14">        Python version according to </text><text xml:space="preserve" x="331.96" y="-551.04" font-family="Times,serif" font-size="14">        typeshed&apos;s VERSIONS file?    </text></g><g class="edge"><title>maybe_module_std-&gt;maybe_module_typeshed_check</title><path fill="none" stroke="#000" d="M455.71-688.83v41.34"/><path stroke="#000" d="m459.21-647.89-3.5 10-3.5-10z"/><text xml:space="preserve" x="467.71" y="-657.99" font-family="Times,serif" font-size="14" text-anchor="middle">Yes</text></g><g class="edge"><title>maybe_namespace-&gt;bail</title><path fill="none" stroke="#000" d="M774.04-444.39c41.72 9.77 84.48 27.61 113.67 59.75 35.46 39.03 4.56 197.29 43 233.39 9.93 9.32 28.38 16.27 51.37 21.44"/><path stroke="#000" d="m982.77-133.24 9.08 5.45-10.5 1.4z"/><text xml:space="preserve" x="916.16" y="-317.34" font-family="Times,serif" font-size="14" text-anchor="middle">No</text></g><g class="node"><title>maybe_namespace_std</title><ellipse cx="541.71" cy="-366.64" fill="none" stroke="#000" rx="337.41" ry="18"/><text xml:space="preserve" x="309.21" y="-361.97" font-family="Times,serif" font-size="14">        Does the search path correspond to the standard library?    </text></g><g class="edge"><title>maybe_namespace-&gt;maybe_namespace_std</title><path fill="none" stroke="#000" d="M621.96-437.66c-14.93 13.03-35.62 31.08-52.25 45.59"/><path stroke="#000" d="m572.41-389.78-9.84 3.94 5.23-9.21z"/><text xml:space="preserve" x="612.67" y="-406.59" font-family="Times,serif" font-size="14" text-anchor="middle">Yes</text></g><g class="edge"><title>maybe_module_typeshed_check-&gt;module</title><path fill="none" stroke="#000" d="M358.83-530.67c-56.05 33.81-123.2 83.66-163.12 146.03-48.57 75.9-20.98 110.76-43 198.14-11.58 45.99-27.12 98.61-37.1 131.45"/><path stroke="#000" d="m119.04-54.29-6.27 8.54-.43-10.59z"/><text xml:space="preserve" x="182.48" y="-317.34" font-family="Times,serif" font-size="14" text-anchor="middle">Yes</text></g><g class="edge"><title>maybe_module_typeshed_check-&gt;maybe_namespace</title><path fill="none" stroke="#000" d="m532.98-529.21 73.42 48.83"/><path stroke="#000" d="m608.11-483.45 6.39 8.46-10.26-2.63z"/><text xml:space="preserve" x="596.88" y="-495.84" font-family="Times,serif" font-size="14" text-anchor="middle">No</text></g><g class="edge"><title>maybe_namespace_std-&gt;namespace_package</title><path fill="none" stroke="#000" d="M431.95-349.28c-31.03 10.26-61.44 26.9-80.24 53.89-27.65 39.71-19.46 64.58 0 108.89 26.78 60.95 88.73 109.14 131.97 136.99"/><path stroke="#000" d="m485.54-52.47 6.6 8.29-10.33-2.37z"/><text xml:space="preserve" x="381.53" y="-155.2" font-family="Times,serif" font-size="14" text-anchor="middle">No</text></g><g class="node"><title>maybe_namespace_typeshed_check</title><ellipse cx="619.71" cy="-240.95" fill="none" stroke="#000" rx="258.98" ry="54.45"/><text xml:space="preserve" x="444.59" y="-262.15" font-family="Times,serif" font-size="14">        Does the module corresponding to `{path}`</text><text xml:space="preserve" x="519.59" y="-244.9" font-family="Times,serif" font-size="14">        exist on the configured</text><text xml:space="preserve" x="499.34" y="-227.65" font-family="Times,serif" font-size="14">        Python version according to </text><text xml:space="preserve" x="495.96" y="-210.4" font-family="Times,serif" font-size="14">        typeshed&apos;s VERSIONS file?    </text></g><g class="edge"><title>maybe_namespace_std-&gt;maybe_namespace_typeshed_check</title><path fill="none" stroke="#000" d="M552.72-348.18c7.31 11.58 17.37 27.54 27.49 43.58"/><path stroke="#000" d="m582.97-306.79 2.37 10.33-8.29-6.59z"/><text xml:space="preserve" x="585.73" y="-317.34" font-family="Times,serif" font-size="14" text-anchor="middle">Yes</text></g><g class="edge"><title>maybe_namespace_typeshed_check-&gt;namespace_package</title><path fill="none" stroke="#000" d="M597.47-186.32c-17.15 41.33-40.27 97.07-54.59 131.58"/><path stroke="#000" d="m546.21-53.63-7.07 7.9.6-10.58z"/><text xml:space="preserve" x="586.71" y="-110.58" font-family="Times,serif" font-size="14" text-anchor="middle">Yes</text></g><g class="edge"><title>maybe_namespace_typeshed_check-&gt;bail</title><path fill="none" stroke="#000" d="M739.84-192.37c43.1 15.35 92.47 31 138.62 41.12 41.71 9.14 86.78 15.9 130.15 20.9"/><path stroke="#000" d="m1008.84-133.84 9.54 4.59-10.32 2.36z"/><text xml:space="preserve" x="888.59" y="-155.2" font-family="Times,serif" font-size="14" text-anchor="middle">No</text></g><g class="edge"><title>retry-&gt;determine_parent_kind</title><path fill="none" stroke="#000" d="M889.55-40.44c2.58-21.96 8.01-60.68 17.16-92.81 24.68-86.58 76-97.74 76-187.77v-796.64c0-145.02-51-177.27-51-322.29v-160.13c0-28.53 8.75-58.93 18.35-83.71"/><path stroke="#000" d="m946.78-1685.04 7-7.96-.51 10.59z"/></g></g></svg>