<svg xmlns="http://www.w3.org/2000/svg" width="446" height="545" fill="none" viewBox="0 0 446 545"><path fill="#d7ff64" fill-rule="evenodd" d="M180.516.5c-5.009 0-9.071 4.06-9.071 9.067v27.2c0 5.007-4.061 9.066-9.071 9.066h-25.399c-5.01 0-9.071 4.06-9.071 9.067v72.533c0 5.008-4.062 9.067-9.072 9.067H93.433c-5.01 0-9.071 4.059-9.071 9.067v49.866c0 5.008-4.061 9.067-9.071 9.067h-25.4c-5.01 0-9.07 4.059-9.07 9.067v49.866c0 5.008-4.062 9.067-9.072 9.067H9.071c-5.01 0-9.071 4.059-9.071 9.067v27.2c0 5.007 4.061 9.066 9.071 9.066h117.925c5.01 0 9.072 4.06 9.072 9.067v49.867c0 5.007-4.062 9.066-9.072 9.066h-25.399c-5.01 0-9.071 4.06-9.071 9.067v49.867c0 5.007-4.061 9.066-9.071 9.066h-25.4c-5.01 0-9.07 4.06-9.07 9.067v72.533c0 5.008 4.06 9.067 9.07 9.067h72.57c5.01 0 9.071-4.059 9.071-9.067v-36.266h36.285c5.01 0 9.071-4.06 9.071-9.067v-27.2c0-5.007 4.061-9.067 9.071-9.067h25.399c5.01 0 9.072-4.059 9.072-9.066v-27.2c0-5.008 4.061-9.067 9.071-9.067h25.399c5.01 0 9.071-4.059 9.071-9.067v-27.2c0-5.007 4.062-9.066 9.071-9.066h25.4c5.01 0 9.071-4.06 9.071-9.067v-27.2c0-5.007 4.061-9.067 9.071-9.067h25.399c5.01 0 9.072-4.059 9.072-9.066v-27.2c0-5.008 4.061-9.067 9.071-9.067h25.399c5.01 0 9.071-4.059 9.071-9.067V190.9c0-5.007-4.061-9.067-9.071-9.067h-26.306c-5.01 0-9.072-4.059-9.072-9.066v-27.2c0-5.008 4.062-9.067 9.072-9.067h25.399c5.01 0 9.071-4.059 9.071-9.067v-27.2c0-5.007 4.061-9.066 9.071-9.066h25.4c5.009 0 9.071-4.06 9.071-9.067V9.567c0-5.008-4.062-9.067-9.071-9.067zm-33.563 385.333c-5.01 0-9.071 4.06-9.071 9.067v49.867c0 5.007-4.061 9.066-9.071 9.066h-25.4c-5.01 0-9.07 4.06-9.07 9.067v27.2c0 5.007 4.06 9.067 9.07 9.067h36.285V462.9c0-5.007 4.061-9.067 9.071-9.067h25.4c5.009 0 9.071-4.059 9.071-9.066v-27.2c0-5.008 4.061-9.067 9.071-9.067h25.399c5.01 0 9.071-4.059 9.071-9.067v-27.2c0-5.007 4.062-9.066 9.072-9.066h25.399c5.01 0 9.071-4.06 9.071-9.067v-27.2c0-5.007 4.061-9.067 9.071-9.067h25.399c5.01 0 9.072-4.059 9.072-9.066v-27.2c0-5.008 4.061-9.067 9.071-9.067h25.399c5.01 0 9.071-4.059 9.071-9.067v-27.2c0-5.007-4.061-9.066-9.071-9.066h-69.848c-5.01 0-9.071-4.06-9.071-9.067v-27.2c0-5.007 4.061-9.067 9.071-9.067h25.399c5.01 0 9.072-4.059 9.072-9.066v-27.2c0-5.008 4.061-9.067 9.071-9.067h25.399c5.01 0 9.071-4.059 9.071-9.067v-27.2c0-5.007 4.061-9.066 9.071-9.066h25.4c5.01 0 9.071-4.06 9.071-9.067V54.9c0-5.007-4.061-9.067-9.071-9.067H182.331c-5.01 0-9.072 4.06-9.072 9.067v72.533c0 5.008-4.061 9.067-9.071 9.067h-25.399c-5.01 0-9.071 4.059-9.071 9.067v49.866c0 5.008-4.062 9.067-9.071 9.067h-25.4c-5.01 0-9.07 4.059-9.07 9.067v49.866c0 5.008 4.06 9.067 9.07 9.067h77.105c5.01 0 9.071 4.059 9.071 9.067v95.2c0 5.007-4.061 9.066-9.071 9.066z" clip-rule="evenodd"/></svg>